<svg width="156" height="117" viewBox="0 0 156 117" fill="none" xmlns="http://www.w3.org/2000/svg">
<g clip-path="url(#clip0_1_26)">
<path d="M57.145 35.565L57.667 36.639H88.883L91.299 32.621H60.083L56.125 25.766L54.964 23.757L56.125 21.748L60.083 14.892H70.746L97.746 14.887L106.342 -0.00195312H64.042L60.084 6.85403L57.184 11.877L55.441 14.891L51.484 21.747L50.324 23.756L51.484 25.765L57.145 35.565Z" fill="white"/>
<path d="M95.423 51.5321L98.323 46.5091L100.066 43.4951L104.023 36.6391L105.184 34.6301L104.023 32.6211L98.363 22.8211L97.841 21.7471H66.623L64.208 25.7651H95.423L99.382 32.6201L100.542 34.6291L99.382 36.6381L95.423 43.494H84.76L57.76 43.4991L49.166 58.386H91.466L95.423 51.5321Z" fill="white"/>
<path d="M25.579 113.985C25.2924 113.981 25.0111 114.062 24.7709 114.219C24.5306 114.375 24.3423 114.599 24.2298 114.863C24.1174 115.127 24.0859 115.418 24.1394 115.699C24.1929 115.981 24.3289 116.24 24.5302 116.444C24.7314 116.649 24.9888 116.788 25.2697 116.846C25.5505 116.903 25.8421 116.876 26.1073 116.767C26.3725 116.658 26.5994 116.473 26.759 116.235C26.9187 115.997 27.004 115.717 27.004 115.43C27.0116 115.24 26.9801 115.05 26.9114 114.873C26.8428 114.695 26.7384 114.534 26.6048 114.398C26.4713 114.263 26.3113 114.156 26.1348 114.085C25.9584 114.014 25.7692 113.98 25.579 113.985Z" fill="white"/>
<path d="M28.9771 102.406H25.5211V109.416H14.9211V109.397H13.4211C11.8001 109.397 11.6831 109.197 10.9411 106.997L8.73514 100.632L5.45514 101.589L7.66113 107.974C7.77813 108.345 7.91512 108.716 8.05112 109.067C6.88238 109.311 5.69093 109.428 4.49713 109.418C3.143 109.43 1.79234 109.279 0.474121 108.969V112.093C1.81334 112.343 3.17288 112.467 4.53513 112.464C6.43997 112.476 8.33783 112.233 10.1781 111.741C11.1755 112.264 12.2939 112.514 13.4191 112.464H28.9811L28.9771 102.406Z" fill="white"/>
<path d="M28.9372 113.985C28.6505 113.981 28.3692 114.062 28.129 114.219C27.8887 114.375 27.7004 114.599 27.588 114.863C27.4755 115.127 27.4441 115.418 27.4975 115.699C27.551 115.981 27.687 116.24 27.8883 116.444C28.0896 116.649 28.347 116.788 28.6278 116.846C28.9087 116.903 29.2002 116.876 29.4654 116.767C29.7306 116.658 29.9575 116.473 30.1172 116.235C30.2769 115.997 30.3621 115.717 30.3622 115.43C30.3698 115.24 30.3382 115.05 30.2696 114.873C30.2009 114.695 30.0966 114.534 29.963 114.398C29.8294 114.263 29.6694 114.156 29.493 114.085C29.3165 114.014 29.1273 113.98 28.9372 113.985Z" fill="white"/>
<path d="M67.776 109.416H64.159V97.759H60.6841V109.416H56.859V107.834C56.859 104.378 54.086 101.898 50.337 101.898C48.8073 101.895 47.3044 102.299 45.983 103.07L47.507 105.901C48.3222 105.286 49.3171 104.957 50.338 104.964C50.734 104.923 51.1342 104.968 51.5115 105.095C51.8888 105.222 52.2345 105.428 52.5251 105.7C52.8158 105.972 53.0446 106.304 53.1963 106.672C53.3479 107.04 53.4188 107.436 53.4041 107.834V109.415H45.476V109.396H43.976C42.355 109.396 42.238 109.196 41.496 106.996L39.29 100.631L36.009 101.587L38.215 107.972C38.332 108.343 38.469 108.714 38.606 109.066C37.4373 109.309 36.2458 109.427 35.052 109.417C33.6979 109.429 32.3473 109.278 31.0291 108.968V112.092C32.3683 112.341 33.7278 112.465 35.09 112.463C36.9949 112.475 38.8927 112.232 40.733 111.74C41.7304 112.263 42.8488 112.513 43.974 112.463H71.252V97.7631H67.777L67.776 109.416Z" fill="white"/>
<path d="M84.0992 101.664C84.1027 102.003 84.2066 102.334 84.3977 102.614C84.5887 102.895 84.8585 103.112 85.1729 103.239C85.4874 103.367 85.8325 103.398 86.1648 103.33C86.4971 103.261 86.8017 103.096 87.0402 102.855C87.2788 102.614 87.4407 102.307 87.5054 101.974C87.5702 101.641 87.535 101.297 87.4042 100.983C87.2734 100.67 87.053 100.403 86.7705 100.215C86.4881 100.027 86.1564 99.9269 85.8171 99.9271C85.588 99.9199 85.3598 99.96 85.1468 100.045C84.9338 100.13 84.7407 100.258 84.5794 100.421C84.4182 100.584 84.2923 100.779 84.2097 100.992C84.127 101.206 84.0894 101.435 84.0992 101.664Z" fill="white"/>
<path d="M88.6091 105.901C89.1501 107.001 89.4372 108.209 89.4491 109.435C89.4491 111.735 88.0821 113.477 85.8361 113.477C83.5901 113.477 82.2431 111.739 82.2431 109.455C82.2519 108.796 82.3372 108.141 82.4971 107.502L79.3531 106.018C78.9897 107.122 78.7922 108.273 78.7671 109.435C78.7723 111.312 79.523 113.111 80.8541 114.435C82.1853 115.758 83.9877 116.499 85.8651 116.494C87.7424 116.489 89.5408 115.738 90.8646 114.407C92.1884 113.076 92.9292 111.273 92.9241 109.396C92.9325 107.609 92.4748 105.852 91.5961 104.296L88.6091 105.901Z" fill="white"/>
<path d="M107.023 107.366C107.024 108.072 107.17 108.769 107.453 109.416H99.037V97.759H95.561V112.459H117.45V103.399C116.007 102.572 114.387 102.103 112.725 102.032C111.999 101.999 111.273 102.111 110.59 102.362C109.908 102.614 109.283 102.999 108.751 103.496C108.22 103.993 107.794 104.591 107.497 105.255C107.201 105.919 107.04 106.636 107.025 107.363M113.996 105.254V109.393H112.08C111.615 109.296 111.201 109.036 110.911 108.66C110.621 108.284 110.475 107.817 110.499 107.343C110.487 107.041 110.537 106.739 110.648 106.457C110.759 106.176 110.927 105.92 111.142 105.707C111.356 105.494 111.613 105.328 111.896 105.219C112.179 105.111 112.481 105.063 112.783 105.078C113.194 105.066 113.604 105.126 113.994 105.254" fill="white"/>
<path d="M111.025 98.7539C111.029 99.0929 111.133 99.4232 111.324 99.7032C111.515 99.9832 111.784 100.2 112.099 100.328C112.413 100.455 112.758 100.486 113.09 100.418C113.422 100.349 113.726 100.184 113.964 99.9431C114.203 99.7021 114.364 99.3959 114.429 99.0632C114.494 98.7305 114.459 98.386 114.328 98.0732C114.198 97.7604 113.978 97.4932 113.695 97.3052C113.413 97.1173 113.082 97.017 112.743 97.0169C112.514 97.0097 112.286 97.0499 112.073 97.1349C111.86 97.2198 111.666 97.3479 111.505 97.5109C111.344 97.6739 111.218 97.8684 111.135 98.0823C111.053 98.2962 111.015 98.5248 111.025 98.7539Z" fill="white"/>
<path d="M148.516 101.64C142.853 101.64 140.237 105.94 139.436 109.412C138.888 109.478 138.334 109.346 137.874 109.041C137.939 108.634 137.973 108.223 137.974 107.811V103.379H134.498V107.792C134.498 109.003 134.166 109.413 132.798 109.413H129.989V103.946L129.852 103.887C128.392 102.719 126.587 102.067 124.717 102.032C123.257 101.981 121.836 102.511 120.767 103.507C119.699 104.503 119.069 105.883 119.017 107.343C119.017 110.311 121.594 112.459 124.717 112.459H126.475C126.319 113.748 125.538 114.08 123.8 113.904L124.249 116.989C127.51 117.126 129.697 115.408 129.97 112.459H133.211C134.429 112.542 135.637 112.196 136.628 111.483C137.583 112.209 138.772 112.556 139.967 112.459H155.1V111.99H155.51V108.319C155.51 104.746 153.323 101.641 148.52 101.641M126.514 109.413H124.737C124.45 109.444 124.159 109.413 123.884 109.323C123.609 109.232 123.357 109.084 123.145 108.888C122.932 108.692 122.764 108.452 122.651 108.186C122.539 107.92 122.484 107.632 122.492 107.343C122.482 107.045 122.533 106.747 122.642 106.469C122.751 106.191 122.915 105.938 123.126 105.726C123.336 105.514 123.587 105.347 123.864 105.235C124.142 105.124 124.438 105.07 124.737 105.078C125.354 105.09 125.96 105.237 126.514 105.508V109.413ZM152.054 109.413H142.954C143.245 108.101 143.966 106.923 145.002 106.067C146.039 105.211 147.331 104.726 148.675 104.688C150.862 104.688 152.053 105.938 152.053 108.319L152.054 109.413Z" fill="white"/>
<path d="M6.34601 86.515C4.51026 86.3734 2.76987 85.6405 1.38599 84.426L0 87.219C1.7924 88.6488 4.01424 89.433 6.30701 89.445C9.35301 89.445 11.813 87.981 11.813 85.169C11.813 80.169 4.608 81.498 4.608 79.155C4.608 78.51 5.17399 78.198 6.03299 78.198C7.59588 78.3455 9.10484 78.8461 10.446 79.662L11.794 76.815C10.1481 75.8081 8.25649 75.2742 6.327 75.272C3.027 75.272 0.859985 76.912 0.859985 79.49C0.859985 84.41 8.065 82.966 8.065 85.368C8.065 86.129 7.40098 86.52 6.34698 86.52" fill="white"/>
<path d="M21.9661 89.4851C22.9212 89.526 23.8746 89.3733 24.7691 89.036C25.6636 88.6987 26.4806 88.1839 27.1709 87.5226C27.8612 86.8612 28.4105 86.0671 28.7858 85.1878C29.161 84.3086 29.3545 83.3625 29.3545 82.4065C29.3545 81.4506 29.161 80.5045 28.7858 79.6253C28.4105 78.7461 27.8612 77.9519 27.1709 77.2906C26.4806 76.6292 25.6636 76.1144 24.7691 75.7771C23.8746 75.4399 22.9212 75.2871 21.9661 75.328C17.7291 75.328 14.5661 78.316 14.5661 82.357C14.5597 83.318 14.7489 84.2703 15.122 85.1559C15.4952 86.0414 16.0445 86.8419 16.7367 87.5085C17.4289 88.1752 18.2494 88.694 19.1483 89.0337C20.0473 89.3733 21.006 89.5265 21.9661 89.484M22.0051 78.354C23.0131 78.4466 23.9502 78.9125 24.6324 79.6602C25.3147 80.408 25.693 81.3838 25.693 82.396C25.693 83.4083 25.3147 84.3841 24.6324 85.1319C23.9502 85.8797 23.0131 86.3455 22.0051 86.4381C20.9822 86.3661 20.0246 85.9089 19.3255 85.1588C18.6263 84.4087 18.2376 83.4214 18.2376 82.396C18.2376 81.3706 18.6263 80.3834 19.3255 79.6333C20.0246 78.8832 20.9822 78.426 22.0051 78.354Z" fill="white"/>
<path d="M36.533 84.29H42.664V81.439H36.533V78.393H43.172L43.1909 75.542H32.96V89.23H36.533V84.29Z" fill="white"/>
<path d="M49.1472 86.809H55.0632L56.0002 89.23H59.8082L54.0722 75.542H50.4012L44.5242 89.23H48.1952L49.1472 86.809ZM52.1352 79.194L54.0092 84.075H50.2212L52.1352 79.194Z" fill="white"/>
<path d="M72.227 83.782L65.998 75.542H62.854V89.23H66.193V81.049L72.402 89.23H75.526V75.542H72.207L72.227 83.782Z" fill="white"/>
<path d="M97.9041 85.169C97.9041 80.169 90.699 81.499 90.699 79.155C90.699 78.511 91.265 78.199 92.124 78.199C93.6869 78.3468 95.1958 78.8473 96.537 79.663L97.885 76.816C96.2391 75.8091 94.3475 75.2752 92.418 75.2729C89.118 75.2729 86.951 76.914 86.951 79.491C86.951 84.411 94.156 82.967 94.156 85.369C94.156 86.13 93.492 86.52 92.438 86.52C90.6022 86.3786 88.8618 85.6456 87.478 84.431L86.092 87.224C87.8844 88.6538 90.1063 89.4379 92.399 89.45C95.445 89.45 97.906 87.985 97.906 85.173" fill="white"/>
<path d="M100.345 78.491H104.406V89.23H107.979V78.491H112.079V75.543H100.345V78.491Z" fill="white"/>
<path d="M126.334 86.379H118.914V83.801L125.436 83.782V80.951H118.914V78.393H126.139V75.542H115.339V89.23H126.332L126.334 86.379Z" fill="white"/>
<path d="M141.33 86.379H133.91V83.801L140.432 83.782V80.951H133.91V78.393H141.135V75.542H130.335V89.23H141.328L141.33 86.379Z" fill="white"/>
<path d="M154.705 86.184H148.905V75.542H145.332V89.23H154.705V86.184Z" fill="white"/>
</g>
<defs>
<clipPath id="clip0_1_26">
<rect width="155.506" height="117" fill="white"/>
</clipPath>
</defs>
</svg>
