<svg xmlns="http://www.w3.org/2000/svg" width="57.176" height="58.388" viewBox="0 0 57.176 58.388">
  <g id="Group_1" data-name="Group 1" transform="translate(-0.166 0.002)">
    <path id="Path_1" data-name="Path 1" d="M8.145,35.565l.522,1.074H39.883L42.3,32.621H11.083L7.125,25.766,5.964,23.757l1.161-2.009,3.958-6.856H21.746l27-.005L57.342,0h-42.3L11.084,6.854l-2.9,5.023L6.441,14.891,2.484,21.747l-1.16,2.009,1.16,2.009Z" fill="#fff"/>
    <path id="Path_2" data-name="Path 2" d="M46.423,51.532l2.9-5.023L51.066,43.5l3.957-6.856,1.161-2.009-1.161-2.009-5.66-9.8-.522-1.074H17.623l-2.415,4.018H46.423l3.959,6.855,1.16,2.009-1.16,2.009-3.959,6.856H35.76l-27,.005L.166,58.386h42.3Z" fill="#fff"/>
  </g>
</svg>
