<?xml version="1.0" encoding="utf-8"?>
<!-- Generator: Adobe Illustrator 24.2.1, SVG Export Plug-In . SVG Version: 6.00 Build 0)  -->
<svg version="1.1" id="Layer_1" xmlns="http://www.w3.org/2000/svg" xmlns:xlink="http://www.w3.org/1999/xlink" x="0px" y="0px"
	 viewBox="0 0 156 117" style="enable-background:new 0 0 156 117;" xml:space="preserve">
<style type="text/css">
	.st0{fill:#467180;}
</style>
<g>
	<path class="st0" d="M57.4,35.6l0.5,1.1h31.2l2.4-4H60.3l-4-6.9l-1.2-2l1.2-2l4-6.9H71l27,0L106.6,0H64.3l-4,6.9l-2.9,5l-1.7,3
		l-4,6.9l-1.2,2l1.2,2L57.4,35.6z"/>
	<path class="st0" d="M95.7,51.5l2.9-5l1.7-3l4-6.9l1.2-2l-1.2-2l-5.7-9.8l-0.5-1.1H66.9l-2.4,4h31.2l4,6.9l1.2,2l-1.2,2l-4,6.9H85
		l-27,0l-8.6,14.9h42.3L95.7,51.5z"/>
	<path class="st0" d="M25.8,114c-0.3,0-0.6,0.1-0.8,0.2c-0.2,0.2-0.4,0.4-0.5,0.6c-0.1,0.3-0.1,0.6-0.1,0.8c0.1,0.3,0.2,0.5,0.4,0.7
		c0.2,0.2,0.5,0.3,0.7,0.4c0.3,0.1,0.6,0,0.8-0.1s0.5-0.3,0.7-0.5c0.2-0.2,0.2-0.5,0.2-0.8c0-0.2,0-0.4-0.1-0.6
		c-0.1-0.2-0.2-0.3-0.3-0.5c-0.1-0.1-0.3-0.2-0.5-0.3C26.2,114,26,114,25.8,114z"/>
	<path class="st0" d="M29.2,102.4h-3.5v7H15.2v0h-1.5c-1.6,0-1.7-0.2-2.5-2.4L9,100.6l-3.3,1l2.2,6.4c0.1,0.4,0.3,0.7,0.4,1.1
		c-1.2,0.2-2.4,0.4-3.6,0.4c-1.4,0-2.7-0.1-4-0.4v3.1c1.3,0.3,2.7,0.4,4.1,0.4c1.9,0,3.8-0.2,5.6-0.7c1,0.5,2.1,0.8,3.2,0.7h15.6
		L29.2,102.4z"/>
	<path class="st0" d="M29.2,114c-0.3,0-0.6,0.1-0.8,0.2c-0.2,0.2-0.4,0.4-0.5,0.6c-0.1,0.3-0.1,0.6-0.1,0.8c0.1,0.3,0.2,0.5,0.4,0.7
		c0.2,0.2,0.5,0.3,0.7,0.4c0.3,0.1,0.6,0,0.8-0.1c0.3-0.1,0.5-0.3,0.7-0.5c0.2-0.2,0.2-0.5,0.2-0.8c0-0.2,0-0.4-0.1-0.6
		c-0.1-0.2-0.2-0.3-0.3-0.5c-0.1-0.1-0.3-0.2-0.5-0.3C29.6,114,29.4,114,29.2,114z"/>
	<path class="st0" d="M68,109.4h-3.6V97.8h-3.5v11.7h-3.8v-1.6c0-3.5-2.8-5.9-6.5-5.9c-1.5,0-3,0.4-4.4,1.2l1.5,2.8
		c0.8-0.6,1.8-0.9,2.8-0.9c0.4,0,0.8,0,1.2,0.1s0.7,0.3,1,0.6c0.3,0.3,0.5,0.6,0.7,1c0.2,0.4,0.2,0.8,0.2,1.2v1.6h-7.9v0h-1.5
		c-1.6,0-1.7-0.2-2.5-2.4l-2.2-6.4l-3.3,1l2.2,6.4c0.1,0.4,0.3,0.7,0.4,1.1c-1.2,0.2-2.4,0.4-3.6,0.4c-1.4,0-2.7-0.1-4-0.4v3.1
		c1.3,0.2,2.7,0.4,4.1,0.4c1.9,0,3.8-0.2,5.6-0.7c1,0.5,2.1,0.8,3.2,0.7h27.3V97.8H68L68,109.4z"/>
	<path class="st0" d="M84.3,101.7c0,0.3,0.1,0.7,0.3,0.9c0.2,0.3,0.5,0.5,0.8,0.6c0.3,0.1,0.7,0.2,1,0.1c0.3-0.1,0.6-0.2,0.9-0.5
		c0.2-0.2,0.4-0.5,0.5-0.9c0.1-0.3,0-0.7-0.1-1c-0.1-0.3-0.4-0.6-0.6-0.8c-0.3-0.2-0.6-0.3-1-0.3c-0.2,0-0.5,0-0.7,0.1
		c-0.2,0.1-0.4,0.2-0.6,0.4c-0.2,0.2-0.3,0.4-0.4,0.6C84.4,101.2,84.3,101.4,84.3,101.7z"/>
	<path class="st0" d="M88.9,105.9c0.5,1.1,0.8,2.3,0.8,3.5c0,2.3-1.4,4-3.6,4c-2.2,0-3.6-1.7-3.6-4c0-0.7,0.1-1.3,0.3-2l-3.1-1.5
		c-0.4,1.1-0.6,2.3-0.6,3.4c0,1.9,0.8,3.7,2.1,5c1.3,1.3,3.1,2.1,5,2.1c1.9,0,3.7-0.8,5-2.1s2.1-3.1,2.1-5c0-1.8-0.4-3.5-1.3-5.1
		L88.9,105.9z"/>
	<path class="st0" d="M107.3,107.4c0,0.7,0.1,1.4,0.4,2.1h-8.4V97.8h-3.5v14.7h21.9v-9.1c-1.4-0.8-3.1-1.3-4.7-1.4
		c-0.7,0-1.5,0.1-2.1,0.3c-0.7,0.3-1.3,0.6-1.8,1.1c-0.5,0.5-1,1.1-1.3,1.8C107.4,105.9,107.3,106.6,107.3,107.4 M114.2,105.3v4.1
		h-1.9c-0.5-0.1-0.9-0.4-1.2-0.7c-0.3-0.4-0.4-0.8-0.4-1.3c0-0.3,0-0.6,0.1-0.9c0.1-0.3,0.3-0.5,0.5-0.8c0.2-0.2,0.5-0.4,0.8-0.5
		c0.3-0.1,0.6-0.2,0.9-0.1C113.4,105.1,113.8,105.1,114.2,105.3"/>
	<path class="st0" d="M111.3,98.8c0,0.3,0.1,0.7,0.3,0.9c0.2,0.3,0.5,0.5,0.8,0.6c0.3,0.1,0.7,0.2,1,0.1c0.3-0.1,0.6-0.2,0.9-0.5
		c0.2-0.2,0.4-0.5,0.5-0.9c0.1-0.3,0-0.7-0.1-1c-0.1-0.3-0.4-0.6-0.6-0.8c-0.3-0.2-0.6-0.3-1-0.3c-0.2,0-0.5,0-0.7,0.1
		c-0.2,0.1-0.4,0.2-0.6,0.4c-0.2,0.2-0.3,0.4-0.4,0.6C111.3,98.3,111.3,98.5,111.3,98.8z"/>
	<path class="st0" d="M148.8,101.6c-5.7,0-8.3,4.3-9.1,7.8c-0.5,0.1-1.1-0.1-1.6-0.4c0.1-0.4,0.1-0.8,0.1-1.2v-4.4h-3.5v4.4
		c0,1.2-0.3,1.6-1.7,1.6h-2.8v-5.5l-0.1-0.1c-1.5-1.2-3.3-1.8-5.1-1.9c-1.5-0.1-2.9,0.5-4,1.5c-1.1,1-1.7,2.4-1.8,3.8
		c0,3,2.6,5.1,5.7,5.1h1.8c-0.2,1.3-0.9,1.6-2.7,1.4l0.4,3.1c3.3,0.1,5.4-1.6,5.7-4.5h3.2c1.2,0.1,2.4-0.3,3.4-1
		c1,0.7,2.1,1.1,3.3,1h15.1V112h0.4v-3.7C155.8,104.7,153.6,101.6,148.8,101.6 M126.8,109.4H125c-0.3,0-0.6,0-0.9-0.1
		c-0.3-0.1-0.5-0.2-0.7-0.4c-0.2-0.2-0.4-0.4-0.5-0.7c-0.1-0.3-0.2-0.6-0.2-0.8c0-0.3,0-0.6,0.2-0.9s0.3-0.5,0.5-0.7
		c0.2-0.2,0.5-0.4,0.7-0.5c0.3-0.1,0.6-0.2,0.9-0.2c0.6,0,1.2,0.2,1.8,0.4V109.4z M152.3,109.4h-9.1c0.3-1.3,1-2.5,2-3.3
		c1-0.9,2.3-1.3,3.7-1.4c2.2,0,3.4,1.3,3.4,3.6L152.3,109.4z"/>
	<path class="st0" d="M6.6,86.5c-1.8-0.1-3.6-0.9-5-2.1l-1.4,2.8c1.8,1.4,4,2.2,6.3,2.2c3,0,5.5-1.5,5.5-4.3c0-5-7.2-3.7-7.2-6
		c0-0.6,0.6-1,1.4-1c1.6,0.1,3.1,0.6,4.4,1.5l1.3-2.8c-1.6-1-3.5-1.5-5.5-1.5c-3.3,0-5.5,1.6-5.5,4.2c0,4.9,7.2,3.5,7.2,5.9
		C8.3,86.1,7.6,86.5,6.6,86.5"/>
	<path class="st0" d="M22.2,89.5c1,0,1.9-0.1,2.8-0.4c0.9-0.3,1.7-0.9,2.4-1.5c0.7-0.7,1.2-1.5,1.6-2.3c0.4-0.9,0.6-1.8,0.6-2.8
		c0-1-0.2-1.9-0.6-2.8c-0.4-0.9-0.9-1.7-1.6-2.3c-0.7-0.7-1.5-1.2-2.4-1.5c-0.9-0.3-1.8-0.5-2.8-0.4c-4.2,0-7.4,3-7.4,7
		c0,1,0.2,1.9,0.6,2.8c0.4,0.9,0.9,1.7,1.6,2.4c0.7,0.7,1.5,1.2,2.4,1.5C20.3,89.4,21.3,89.5,22.2,89.5 M22.3,78.4
		c1,0.1,1.9,0.6,2.6,1.3c0.7,0.7,1.1,1.7,1.1,2.7c0,1-0.4,2-1.1,2.7c-0.7,0.7-1.6,1.2-2.6,1.3c-1-0.1-2-0.5-2.7-1.3
		c-0.7-0.8-1.1-1.7-1.1-2.8c0-1,0.4-2,1.1-2.8C20.3,78.9,21.2,78.4,22.3,78.4z"/>
	<path class="st0" d="M36.8,84.3h6.1v-2.9h-6.1v-3h6.6l0-2.9H33.2v13.7h3.6V84.3z"/>
	<path class="st0" d="M49.4,86.8h5.9l0.9,2.4h3.8l-5.7-13.7h-3.7l-5.9,13.7h3.7L49.4,86.8z M52.4,79.2l1.9,4.9h-3.8L52.4,79.2z"/>
	<path class="st0" d="M72.5,83.8l-6.2-8.2h-3.1v13.7h3.3v-8.2l6.2,8.2h3.1V75.5h-3.3L72.5,83.8z"/>
	<path class="st0" d="M98.1,85.2c0-5-7.2-3.7-7.2-6c0-0.6,0.6-1,1.4-1c1.6,0.1,3.1,0.6,4.4,1.5l1.3-2.8c-1.6-1-3.5-1.5-5.5-1.5
		c-3.3,0-5.5,1.6-5.5,4.2c0,4.9,7.2,3.5,7.2,5.9c0,0.8-0.7,1.2-1.7,1.2c-1.8-0.1-3.6-0.9-5-2.1l-1.4,2.8c1.8,1.4,4,2.2,6.3,2.2
		C95.7,89.5,98.2,88,98.1,85.2"/>
	<path class="st0" d="M100.6,78.5h4.1v10.7h3.6V78.5h4.1v-2.9h-11.7V78.5z"/>
	<path class="st0" d="M126.6,86.4h-7.4v-2.6l6.5,0V81h-6.5v-2.6h7.2v-2.9h-10.8v13.7h11L126.6,86.4z"/>
	<path class="st0" d="M141.6,86.4h-7.4v-2.6l6.5,0V81h-6.5v-2.6h7.2v-2.9h-10.8v13.7h11L141.6,86.4z"/>
	<path class="st0" d="M155,86.2h-5.8V75.5h-3.6v13.7h9.4V86.2z"/>
</g>
</svg>
